<svg xmlns="http://www.w3.org/2000/svg" width="841.702" height="762.144" viewBox="0 0 841.702 762.144"><path d="M909.348,447.958c-44.809-33.5-114.99-65.179-192.548-86.917-70.618-19.793-139.5-29.35-193.961-26.909l-.283-6.334c55.114-2.468,124.707,7.168,195.955,27.138,78.282,21.941,149.224,54,194.634,87.944Z" transform="translate(-224.891 -141.329)" fill="#3f3d56"/><path d="M920.061,498.049A210.991,210.991,0,0,1,901.8,584.192q-1.512,3.4-3.151,6.746a211.79,211.79,0,0,1-402.109-92.889q0-7.351.5-14.589.238-3.68.615-7.316a211.771,211.771,0,0,1,422.4,21.905Z" transform="translate(-240.256 -165.619)" fill="#f2f2f2"/><path d="M901.616,513.7q-1.512,3.4-3.151,6.746-9.282,1.008-19.54,1.464c-5.662.254-11.488.38-17.442.38-52,0-114.585-9.6-178.519-27.516-71.25-19.971-135.71-47.906-181.511-78.662q-2.34-1.569-4.6-3.145.238-3.68.615-7.316,3.642,2.6,7.513,5.2c45.262,30.388,109.076,58.025,179.691,77.819,63.376,17.765,125.37,27.282,176.775,27.282q8.816,0,17.188-.374Q890.831,515.021,901.616,513.7Z" transform="translate(-240.069 -95.124)" opacity="0.1"/><path d="M883.17,563.282c-52,0-114.587-9.6-178.519-27.518-71.25-19.97-135.712-47.906-181.514-78.661-46.757-31.4-68.683-62.334-61.738-87.113s41.756-39.813,98.02-42.335l.283,6.334c-26.275,1.177-47.687,5.083-63.643,11.607-15.917,6.509-25.525,15.292-28.555,26.105s.612,23.31,10.828,37.143c10.241,13.867,26.5,28.332,48.34,42.994,45.257,30.39,109.072,58.027,179.691,77.82,63.377,17.763,125.366,27.282,176.776,27.284q8.811,0,17.185-.375c26.275-1.178,47.688-5.083,63.644-11.607,15.917-6.509,25.525-15.291,28.555-26.1,5.442-19.417-11-44.646-46.309-71.04l3.8-5.078c18.168,13.582,31.616,26.971,39.972,39.792,8.958,13.746,11.867,26.544,8.645,38.037-6.945,24.778-41.756,39.813-98.02,42.334C894.946,563.156,889.122,563.282,883.17,563.282Z" transform="translate(-261.756 -141.189)" fill="#3f3d56"/><circle cx="2.427" cy="2.427" r="2.427" transform="translate(471.221 77.626)" fill="#f2f2f2"/><circle cx="4.175" cy="4.175" r="4.175" transform="translate(147.549 179.426)" fill="#98f0ff"/><circle cx="8.247" cy="8.247" r="8.247" transform="translate(134.579 338.743)" fill="#98f0ff"/><circle cx="5.496" cy="5.496" r="5.496" transform="translate(632.348 89.116)" fill="#98f0ff"/><circle cx="8.924" cy="8.924" r="8.924" transform="translate(823.854 313.801)" fill="#98f0ff"/><circle cx="3.829" cy="3.829" r="3.829" transform="translate(759.17 176.37)" fill="#98f0ff"/><circle cx="5.973" cy="5.973" r="5.973" transform="translate(292.152 125.038)" fill="#98f0ff"/><circle cx="3.829" cy="3.829" r="3.829" transform="translate(745.77 300.801)" fill="#98f0ff"/><circle cx="4.765" cy="4.765" r="4.765" transform="translate(0 313.952)" fill="#98f0ff"/><circle cx="5.161" cy="5.161" r="5.161" transform="translate(71.999 235.134)" fill="#98f0ff"/><path d="M266.415,10.183H256.232V0h-5.464V10.183H240.58v5.469h10.188V25.835h5.464V15.652h10.183Z" transform="translate(142.095)" fill="#98f0ff"/><path d="M411.358,355.2h-6.4V348.81h-3.429V355.2h-6.394v3.431h6.394v6.394h3.429v-6.394h6.4Z" transform="translate(233.383 206.02)" fill="#ccc"/><path d="M502.626,334.027h-4.78v-4.78h-2.567v4.78H490.5v2.567h4.78v4.78h2.567v-4.78h4.78Z" transform="translate(289.707 194.465)" fill="#98f0ff"/><circle cx="17.795" cy="17.795" r="17.795" transform="translate(316.729 279.047)" opacity="0.1"/><circle cx="17.795" cy="17.795" r="17.795" transform="translate(513.281 457.802)" opacity="0.1"/><circle cx="17.795" cy="17.795" r="17.795" transform="translate(453.425 306.547)" fill="#15bae4" opacity="0.1"/><circle cx="17.795" cy="17.795" r="17.795" transform="translate(325.627 404.419)" fill="#15bae4" opacity="0.1"/><circle cx="17.795" cy="17.795" r="17.795" transform="translate(548.871 211.103)" opacity="0.1"/><circle cx="17.795" cy="17.795" r="17.795" transform="translate(607.917 331.622)" opacity="0.1"/><circle cx="23.457" cy="23.457" r="23.457" transform="translate(543.209 131.026)" fill="#fff"/><path d="M703.984,286.191a33.163,33.163,0,0,0-33.163,33.163c0,18.315,33.163,78.459,33.163,78.459s33.163-60.143,33.163-78.459A33.163,33.163,0,0,0,703.984,286.191Zm0,49.34a15.368,15.368,0,1,1,15.368-15.368,15.368,15.368,0,0,1-15.368,15.368Z" transform="translate(-137.319 -165.68)" fill="#15bae4"/><circle cx="23.457" cy="23.457" r="23.457" transform="translate(310.976 194.651)" fill="#fff"/><path d="M557.984,326.191a33.163,33.163,0,0,0-33.163,33.163c0,18.315,33.163,78.459,33.163,78.459s33.163-60.143,33.163-78.459A33.163,33.163,0,0,0,557.984,326.191Zm0,49.34a15.368,15.368,0,1,1,15.368-15.368,15.368,15.368,0,0,1-15.368,15.368Z" transform="translate(-223.552 -142.054)" fill="#15bae4"/><circle cx="23.457" cy="23.457" r="23.457" transform="translate(605.244 248.733)" fill="#fff"/><path d="M742.984,360.191a33.163,33.163,0,0,0-33.163,33.163c0,18.315,33.163,78.459,33.163,78.459s33.163-60.143,33.163-78.459a33.163,33.163,0,0,0-33.163-33.163Zm0,49.34a15.368,15.368,0,1,1,15.368-15.368,15.368,15.368,0,0,1-15.368,15.368Z" transform="translate(-114.285 -121.972)" fill="#15bae4"/><circle cx="23.457" cy="23.457" r="23.457" transform="translate(207.585 366.44)" fill="#fff"/><path d="M492.984,434.191a33.163,33.163,0,0,0-33.163,33.163c0,18.316,33.163,78.459,33.163,78.459s33.163-60.143,33.163-78.459a33.163,33.163,0,0,0-33.163-33.163Zm0,49.34a15.368,15.368,0,1,1,15.368-15.368,15.368,15.368,0,0,1-15.368,15.368Z" transform="translate(-261.944 -78.265)" fill="#15bae4"/><ellipse cx="10.753" cy="34.252" rx="10.753" ry="34.252" transform="translate(718.747 532.63) rotate(-39.938)" fill="#2f2e41"/><circle cx="68.504" cy="68.504" r="68.504" transform="translate(607.61 471.584)" fill="#2f2e41"/><rect width="20.811" height="37.287" transform="translate(684.298 593.85)" fill="#2f2e41"/><rect width="20.811" height="37.287" transform="translate(642.676 593.85)" fill="#2f2e41"/><ellipse cx="17.343" cy="6.504" rx="17.343" ry="6.504" transform="translate(670.425 625.067)" fill="#2f2e41"/><ellipse cx="17.343" cy="6.504" rx="17.343" ry="6.504" transform="translate(628.801 624.2)" fill="#2f2e41"/><path d="M747.316,508.471c6.117-24.634,33.118-39.131,60.308-32.379s44.274,32.195,38.157,56.829-26.411,24.714-53.6,17.962S741.2,533.105,747.316,508.471Z" transform="translate(-92.711 -54.495)" fill="#6ecddd"/><ellipse cx="10.753" cy="34.252" rx="10.753" ry="34.252" transform="translate(563.403 503.336) rotate(-64.626)" fill="#2f2e41"/><circle cx="22.839" cy="22.839" r="22.839" transform="translate(643.035 502.793)" fill="#fff"/><circle cx="7.613" cy="7.613" r="7.613" transform="translate(648.873 509.832)" fill="#3f3d56"/><path d="M774.256,573.745A15.226,15.226,0,1,1,744.3,579.2h0l-.005-.029c-1.5-8.275,4.9-11.2,13.175-12.7S772.758,565.47,774.256,573.745Z" transform="translate(-94.055 -0.529)" fill="#fff"/><path d="M700.831,462.64a47.557,47.557,0,1,0,2.7,70.234L761.862,582.1a4.382,4.382,0,0,0,5.659-6.693l-.006-.005L709.18,526.175A47.56,47.56,0,0,0,700.831,462.64Zm-3.761,58.8a35.63,35.63,0,1,1-4.254-50.208h0a35.63,35.63,0,0,1,4.252,50.208Z" transform="translate(-165.798 -68.084)" fill="#3f3d56"/><path d="M643.952,515.9a35.632,35.632,0,0,1-6.046-47.9q-1.022,1.029-1.976,2.156a35.63,35.63,0,1,0,54.462,45.955q.952-1.128,1.792-2.31a35.632,35.632,0,0,1-48.233,2.1Z" transform="translate(-162.889 -58.296)" opacity="0.3"/><ellipse cx="34.252" cy="10.753" rx="34.252" ry="10.753" transform="matrix(0.357, -0.934, 0.934, 0.357, 203.069, 516.515)" fill="#2f2e41"/><circle cx="68.504" cy="68.504" r="68.504" transform="translate(93.521 471.582)" fill="#2f2e41"/><rect width="20.811" height="37.287" transform="translate(130.808 593.85)" fill="#2f2e41"/><rect width="20.811" height="37.287" transform="translate(172.431 593.85)" fill="#2f2e41"/><ellipse cx="17.343" cy="6.504" rx="17.343" ry="6.504" transform="translate(130.808 625.067)" fill="#2f2e41"/><ellipse cx="17.343" cy="6.504" rx="17.343" ry="6.504" transform="translate(172.431 624.2)" fill="#2f2e41"/><circle cx="23.413" cy="23.413" r="23.413" transform="translate(140.346 499.331)" fill="#fff"/><circle cx="7.804" cy="7.804" r="7.804" transform="translate(155.955 514.939)" fill="#3f3d56"/><path d="M395.881,531.181c-5.531-24.772,12.15-49.8,39.493-55.909s53.993,9.027,59.524,33.8-12.59,33.909-39.933,40.014S401.412,555.953,395.881,531.181Z" transform="translate(-300.307 -54.801)" fill="#6ecddd"/><ellipse cx="10.753" cy="34.252" rx="10.753" ry="34.252" transform="translate(49.313 503.337) rotate(-64.626)" fill="#2f2e41"/><path d="M416.127,568.593c0,6.7,17.264,19.944,36.42,19.944s37.118-18.876,37.118-25.581-17.961,1.3-37.118,1.3S416.127,561.888,416.127,568.593Z" transform="translate(-287.751 -3.792)" fill="#fff"/><circle cx="68.504" cy="68.504" r="68.504" transform="translate(315.763 595.652)" fill="#2f2e41"/><rect width="20.811" height="37.287" transform="translate(353.051 717.92)" fill="#2f2e41"/><rect width="20.811" height="37.287" transform="translate(394.674 717.92)" fill="#2f2e41"/><ellipse cx="17.343" cy="6.504" rx="17.343" ry="6.504" transform="translate(353.051 749.136)" fill="#2f2e41"/><ellipse cx="17.343" cy="6.504" rx="17.343" ry="6.504" transform="translate(394.673 748.27)" fill="#2f2e41"/><path d="M535.6,609.181c-5.531-24.772,12.15-49.8,39.493-55.909s53.993,9.027,59.524,33.8-12.59,33.909-39.933,40.014S541.132,633.953,535.6,609.181Z" transform="translate(-217.784 -8.731)" fill="#3f3d56"/><path d="M599.542,628.269s4.969-21.865-4.472-20.871-22.362,1.491-25.841,1.491-23.356-2.485-26.338,10.436-6.957,28.822,1.491,38.761c0,0,2.982,43.73,14.411,46.712s41.742,6.46,52.675-7.951a37.062,37.062,0,0,0,6.46-30.313h-4.969Z" transform="translate(-214.999 24.018)" fill="#6ecddd"/><path d="M545.62,641.438s8.448,3.975,25.841,1.491v7.454L545.62,648.4Z" transform="translate(-211.268 44.143)" opacity="0.1"/><path d="M591.622,684.85,586,681.877l25.02-47.347a11.82,11.82,0,0,0-10.133-17.339l-26.257-.707.171-6.361,26.258.707A18.184,18.184,0,0,1,616.642,637.5Z" transform="translate(-194.136 25.647)" fill="#15bae4"/><path d="M557.367,684.85,532.346,637.5a18.184,18.184,0,0,1,15.587-26.672l26.258-.707.171,6.361-26.258.707a11.82,11.82,0,0,0-10.133,17.339l25.02,47.346Z" transform="translate(-220.352 25.648)" fill="#15bae4"/><ellipse cx="11.931" cy="38.004" rx="11.931" ry="38.004" transform="translate(399.335 656.739) rotate(-62.122)" fill="#2f2e41"/></svg>