<svg xmlns="http://www.w3.org/2000/svg" width="130.484" height="111.303" viewBox="0 0 130.484 111.303"><g transform="translate(-26.001 -59.808)"><g transform="translate(26.002 59.807)"><path d="M123.858,71.789l-.063-.063-.039-.032a19.854,19.854,0,0,0-4.713-3.507l-.024.047-.024.048-.016.039v.016l-.024.047-.016.047-.024.047-.016.047h-.008l-.016.055-.024.047-.024.047-.016.047h0l-.024.047-.023.047-.024.047-.016.047v.008l-.024.039-.023.055-.024.047-.024.047h0l-.016.048-.024.047-.024.047-.023.055-.024.039c-.3.631-.638,1.246-.985,1.837a23.186,23.186,0,0,1-2.057,2.869,19.927,19.927,0,0,0,13.131,5.485l-.071-.22-.024-.071-.016-.04-.04-.118-.031-.071-.008-.039-.079-.189-.008-.031-.039-.11-.039-.087-.008-.024-.039-.111-.039-.095-.008-.016-.047-.1-.039-.11h0l-.047-.111-.047-.11h0l-.047-.1-.047-.11-.008-.008-.039-.095-.1-.213-.047-.11-.016-.024-.039-.079-.047-.11L127.569,77l-.039-.071-.047-.1-.024-.04-.031-.071-.055-.1-.023-.039-.031-.063-.055-.1-.024-.055-.031-.047-.055-.1-.031-.055L127.1,76.1l-.063-.1L127,75.935l-.024-.039-.055-.1-.039-.071-.024-.024-.055-.1-.047-.079-.016-.024-.063-.094-.047-.087-.008-.016-.063-.094-.055-.095L126.5,75.1,126.434,75l-.064-.095V74.9l-.063-.094-.063-.094-.008-.008-.063-.094-.064-.095-.008-.008-.055-.087-.071-.094-.008-.016-.055-.079-.071-.095-.016-.024-.055-.071-.064-.094-.07-.095-.071-.087-.023-.04-.047-.055-.071-.094-.031-.04-.039-.047-.071-.094-.039-.047-.031-.039-.078-.095-.04-.047-.031-.039-.071-.087-.055-.063-.024-.031-.079-.094-.047-.055-.031-.031-.079-.094-.047-.055-.031-.031-.079-.094-.047-.055-.041-.032-.079-.087-.079-.094-.087-.087-.047-.047-.031-.039-.087-.087-.047-.047-.031-.04ZM90.952,78.37A19.95,19.95,0,0,0,94.239,79.4a20.193,20.193,0,0,0,4.366.473,19.968,19.968,0,0,0,11.586-3.681,19.694,19.694,0,0,0,3.113-2.727l.016-.016.031-.039a19.58,19.58,0,0,0,2.451-3.271,18.6,18.6,0,0,0,1.025-1.915l.015-.039.016-.031.008-.016.023-.048.047-.1.008-.031.024-.04.015-.047.024-.047h0l.016-.047.024-.039.055-.142.024-.039.016-.047.008-.016.008-.031.024-.047.016-.039.024-.048a19.846,19.846,0,0,0-6.88-1.5h-.016l-.2-.007h-.055l-.016-.008h-.749c-.252,0-.5.008-.749.024h-.024c-.513.031-1.025.071-1.529.134l-.031.008a19.974,19.974,0,0,0-11.6,5.714c-.165.166-.331.331-.488.5l-.016.024-.1.11-.055.063-.165.181-.024.024A19.974,19.974,0,0,0,90.952,78.37Zm23.156-2.845A22.086,22.086,0,0,1,90.29,80.27a20.07,20.07,0,1,0,38.879,1.293,21.959,21.959,0,0,1-15.061-6.038Zm3.113,43.907V106.609a22.056,22.056,0,0,1-16.078-.3v13.785l7.589,16.18Zm1.868.607a1.006,1.006,0,0,1-.071.126l-9.458,18.75a.977.977,0,0,1-.449.441.963.963,0,0,1-1.285-.465L105.533,134,99.338,120.8a1.154,1.154,0,0,1-.079-.174l-3.822-8.149c-4.414,1.718-8.181,3.09-11.365,4.256-13.919,5.076-16.425,5.99-16.63,15.881a17.742,17.742,0,0,0,3.413,10.939,27.244,27.244,0,0,0,9.237,7.787V134.264a.975.975,0,0,1,.772-.946.963.963,0,0,1,1.143.741L86.169,153.6a54.731,54.731,0,0,0,23.495,5.856,48.889,48.889,0,0,0,22.62-5.407l4.059-19.9a.969.969,0,0,1,1.931.118v16.874a26.687,26.687,0,0,0,9.568-8.662,19.7,19.7,0,0,0,2.963-12.4c-.607-7.543-3.814-8.709-16.5-13.336-3.192-1.166-6.975-2.546-11.4-4.28l-3.808,7.559ZM53.966,85.613a2.57,2.57,0,0,0,.465-.9,4.093,4.093,0,0,0,.157-1.214,3.118,3.118,0,0,0-.615-2.1,2.238,2.238,0,0,0-3.247.008,3.107,3.107,0,0,0-.623,2.1,3.162,3.162,0,0,0,.623,2.128,2.006,2.006,0,0,0,1.576.709,1.9,1.9,0,0,0,.67-.119,4.816,4.816,0,0,0-1.009-.5l.457-.953A5.609,5.609,0,0,1,53.966,85.613Zm1.308.922a5.607,5.607,0,0,0,1.308.686l-.6,1.166a3.4,3.4,0,0,1-.725-.307c-.047-.024-.41-.268-1.088-.725a4.284,4.284,0,0,1-1.766.355,3.892,3.892,0,0,1-2.932-1.1A4.334,4.334,0,0,1,48.417,83.5a4.263,4.263,0,0,1,1.064-3.089A3.8,3.8,0,0,1,52.357,79.3a3.752,3.752,0,0,1,2.861,1.111A4.264,4.264,0,0,1,56.283,83.5a5.332,5.332,0,0,1-.3,1.852A3.962,3.962,0,0,1,55.274,86.535Zm-10.4-2.19-1.127-3-1.1,3Zm3,3.215H46.115l-.7-1.844H42.159l-.67,1.844H39.747L42.9,79.45h1.734Zm-13.6,0V79.45h5.58v1.372H35.925v1.923h3.4v1.371h-3.4V87.56ZM64.9,76.817v12.91a7.343,7.343,0,0,1-7.338,7.338H43.309l-.488.3a4.546,4.546,0,0,0,1.639,1.97,4.411,4.411,0,0,0,2.443.733H61.7a.923.923,0,0,1,.576.2l8.48,5.257v-4.485a.969.969,0,0,1,.97-.97h1.347a4.44,4.44,0,0,0,4.429-4.429V81.247a4.453,4.453,0,0,0-1.3-3.129l-.047-.047a4.43,4.43,0,0,0-3.081-1.253H64.9Zm-7.338-6.88H31.393A5.409,5.409,0,0,0,26,75.336V89.727a5.7,5.7,0,0,0,.441,2.333,4.21,4.21,0,0,0,1.277,1.663,5.571,5.571,0,0,0,1.742.922,9.6,9.6,0,0,0,2.38.457l.9.055.008,6.195,9.781-6.077.5-.149H57.567a5.232,5.232,0,0,0,2.057-.41,5.453,5.453,0,0,0,1.758-1.174,5.547,5.547,0,0,0,1.174-1.758,5.381,5.381,0,0,0,.41-2.057V76.3a.951.951,0,0,1,0-.89v-.071a5.409,5.409,0,0,0-5.4-5.4Zm2.774,97.138a.969.969,0,0,1,0-1.939h66.33a.969.969,0,1,1,0,1.939Zm38.84,4.035a.97.97,0,1,1,0-1.939h45.9a.97.97,0,0,1,0,1.939Zm50.6,0a.97.97,0,1,1,0-1.939h5.738a.97.97,0,0,1,0,1.939Zm-92.055-.118a.97.97,0,0,1,0-1.939H79.477a.97.97,0,0,1,0,1.939Zm9.553-56.155a.981.981,0,0,1,1.363.142.97.97,0,0,1-.142,1.356c-.039.031-12.192,9.812-8.622,15.377a11.842,11.842,0,0,1,1.7,6.77c.087,3.247.173,6.353,7.763,10.293a.969.969,0,0,1,.41,1.308.957.957,0,0,1-1.3.41c-8.6-4.469-8.7-8.126-8.8-11.972a10.176,10.176,0,0,0-1.4-5.761C53.744,125.721,67.238,114.869,67.277,114.837ZM110.1,63.805h.228l.071.008h.079l.079.008h.071l.071.008h.087l.071.008h.079l.047.007h.1l.079.008.071.008h.023l.055.007h.071l.079.008.071.008h.008l.071.008.079.008.07.008.45.047.079.008a22.064,22.064,0,0,1,12.894,6.305l.055.055a22.11,22.11,0,0,1,2.168,28.586l.023.008.079.016a4.774,4.774,0,0,0,1.261.166,4.259,4.259,0,0,0,3.893-2.577,16.351,16.351,0,0,0,1.45-6.778,42.468,42.468,0,0,0-.67-8.606c-1.071-6.1-3.121-11.476-4.949-11.941l-.166-.063a.967.967,0,0,1-.465-1.285,5.53,5.53,0,0,0,.362-1.056,5.6,5.6,0,0,0,.118-1.119,5.053,5.053,0,0,0-1.435-3.539,4.8,4.8,0,0,0-3.444-1.45,4.864,4.864,0,0,0-1.379.2l-.071.024a4.9,4.9,0,0,0-1.3.646l-.016.008a.967.967,0,0,1-1.293-.165,4.585,4.585,0,0,0-1.481-1.151l-.055-.024a4.35,4.35,0,0,0-1.868-.41H103.12a4.348,4.348,0,0,0-1.868.41,4.473,4.473,0,0,0-1.521,1.158l-.016.016a.963.963,0,0,1-1.293.165,4.9,4.9,0,0,0-1.316-.654,4.834,4.834,0,0,0-4.895,1.229A5.157,5.157,0,0,0,90.9,66.79a4.828,4.828,0,0,0,.331.985,1.332,1.332,0,0,1,.094.244.974.974,0,0,1-.7,1.175c-1.82.465-3.877,5.848-4.949,11.941a41.864,41.864,0,0,0-.662,8.606,16.361,16.361,0,0,0,1.442,6.778A4.267,4.267,0,0,0,90.351,99.1a4.686,4.686,0,0,0,1.261-.166l.11-.031a22.066,22.066,0,0,1,.622-26.844l.008-.016.26-.315.079-.087.055-.071.276-.323.015-.008.135-.149.039-.047.1-.111.079-.087.063-.071.291-.307.008-.008.142-.142.047-.047.1-.1c.4-.395.82-.78,1.253-1.143l.008-.008.149-.126c.489-.41,1-.8,1.521-1.158L97,67.721l.15-.111a21.744,21.744,0,0,1,2.7-1.56l.142-.071.047-.024c.252-.118.5-.237.764-.347l.173-.079.016-.008.189-.078.039-.016.158-.063.394-.149.2-.071.008-.008.189-.071.063-.024.134-.039.126-.047.079-.024.173-.063h.024l.205-.071.032-.008.165-.055.094-.023.111-.031.15-.048.054-.016.205-.055h.008l.2-.055.063-.016.142-.031.127-.031.079-.024.189-.04.024-.008.2-.047.039-.008.024-.008.244-.047.118-.024.15-.031.055-.008.212-.039h.008l.205-.04.063-.008.551-.087L106.5,64l.22-.024.031-.008c.347-.039.694-.079,1.048-.1l.063-.007.157-.008.126-.008.276-.016.031-.008.252-.008.189-.008h.094l.576-.008Z" transform="translate(-26.003 -59.807)" fill="#110c53" fill-rule="evenodd"/><path d="M0,0H27V15H0Z" transform="translate(6.441 15.53)" fill="#110c53"/></g></g></svg>