<svg xmlns="http://www.w3.org/2000/svg" width="114.982" height="80.217" viewBox="0 0 114.982 80.217"><g transform="translate(-6 -81.6)"><path d="M55.534,81.6C28.169,81.6,6,98.18,6,118.647c0,12.211,7.934,23.065,20.145,29.8a21.381,21.381,0,0,1-10.417,12.97s12.165,3.1,22.514-8.072a64.816,64.816,0,0,0,17.316,2.323c27.366,0,49.534-16.58,49.534-37.024S82.9,81.6,55.534,81.6Zm-22.79,29.183a7.842,7.842,0,1,1-7.842,7.842A7.837,7.837,0,0,1,32.745,110.783Zm22.79,15.707a7.842,7.842,0,1,1,7.842-7.842A7.837,7.837,0,0,1,55.534,126.489Zm22.813,0a7.842,7.842,0,1,1,7.842-7.842A7.837,7.837,0,0,1,78.347,126.489Z" transform="translate(0 0)" fill="#50c4ad"/><g transform="translate(78.738 116.256)"><path d="M352.816,268.06c7.129-3.932,11.728-10.256,11.728-17.362,0-7.773-5.519-14.6-13.775-18.4.069.8.092,1.587.092,2.392,0,10.624-5.473,20.559-15.408,27.964a53.769,53.769,0,0,1-13.154,7.152,36.828,36.828,0,0,0,13.361,2.461,37.826,37.826,0,0,0,10.1-1.357c6.025,6.508,13.108,4.691,13.108,4.691A12.342,12.342,0,0,1,352.816,268.06Z" transform="translate(-322.3 -232.3)" fill="#6ecddd"/></g></g></svg>