<svg xmlns="http://www.w3.org/2000/svg" width="36.204" height="43.083" viewBox="0 0 36.204 43.083"><path d="M30.551,25.017c-.019-3.53,1.577-6.194,4.809-8.157a10.334,10.334,0,0,0-8.147-4.29C23.8,12.3,20.067,14.562,18.7,14.562c-1.443,0-4.752-1.895-7.349-1.895C5.985,12.753.281,16.947.281,25.479a23.973,23.973,0,0,0,1.385,7.81C2.9,36.819,7.341,45.476,11.977,45.332c2.424-.058,4.136-1.722,7.291-1.722,3.059,0,4.646,1.722,7.349,1.722,4.675-.067,8.7-7.935,9.869-11.475-6.271-2.953-5.935-8.657-5.935-8.839ZM25.107,9.223A9.059,9.059,0,0,0,27.415,2.25a10.2,10.2,0,0,0-6.531,3.357,9.2,9.2,0,0,0-2.462,6.916c2.51.192,4.8-1.1,6.685-3.3Z" transform="translate(-0.281 -2.25)" fill="#fff"/></svg>