<svg xmlns="http://www.w3.org/2000/svg" width="103.754" height="83.518" viewBox="0 0 103.754 83.518"><path d="M103.925,5.693A10.713,10.713,0,0,0,101.152,5,345.056,345.056,0,0,1,4.812,5a3.734,3.734,0,0,0-2.772.693A3.935,3.935,0,0,0,1,8.465V70.844a3.935,3.935,0,0,0,1.04,2.772,4.167,4.167,0,0,0,2.772.693c7.624-1.04,15.595-2.079,23.219-2.426a23.9,23.9,0,0,0-8.664,11.783,3.509,3.509,0,0,0,6.584,2.426c2.772-8.317,13.515-14.555,25.645-14.9h2.426c12.129.347,22.872,6.584,25.645,14.9a3.443,3.443,0,0,0,3.465,2.426,1.273,1.273,0,0,0,1.04-.347,3.467,3.467,0,0,0,2.079-4.505,23.9,23.9,0,0,0-8.664-11.783c7.624.693,15.595,1.386,23.219,2.426h.347a6.425,6.425,0,0,0,2.426-.693,3.935,3.935,0,0,0,1.04-2.772V8.465A2.7,2.7,0,0,0,103.925,5.693ZM67.191,45.546l-17.327,10.4a6.3,6.3,0,0,1-6.931,0,7.147,7.147,0,0,1-3.465-5.891V29.258a7.147,7.147,0,0,1,3.465-5.891c2.079-1.386,4.852-1.04,6.931,0l17.327,10.4a6.809,6.809,0,0,1,3.119,5.891A7.718,7.718,0,0,1,67.191,45.546Z" transform="translate(-1 -5)" fill="#6ecddd"/></svg>