<svg xmlns="http://www.w3.org/2000/svg" width="79.269" height="91.464" viewBox="0 0 79.269 91.464"><path d="M36.013,70.123H51.257a1.524,1.524,0,1,0,0-3.049H36.013a1.524,1.524,0,0,0,0,3.049Zm0-9.146H60.4a1.524,1.524,0,0,0,0-3.049H36.013a1.524,1.524,0,0,0,0,3.049ZM34.488,50.305a1.524,1.524,0,0,0,1.524,1.524H63.452a1.524,1.524,0,0,0,0-3.049H36.013a1.524,1.524,0,0,0-1.524,1.524Zm1.524-7.622H57.354a1.524,1.524,0,1,0,0-3.049H36.013a1.524,1.524,0,1,0,0,3.049Zm0-9.146H60.4a1.524,1.524,0,0,0,0-3.049H36.013a1.524,1.524,0,1,0,0,3.049ZM26.866,67.074H23.817a1.524,1.524,0,1,0,0,3.049h3.049a1.524,1.524,0,0,0,0-3.049Zm0-9.146H23.817a1.524,1.524,0,0,0,0,3.049h3.049a1.524,1.524,0,0,0,0-3.049Zm0-9.146H23.817a1.524,1.524,0,1,0,0,3.049h3.049a1.524,1.524,0,0,0,0-3.049Zm0-9.146H23.817a1.524,1.524,0,1,0,0,3.049h3.049a1.524,1.524,0,1,0,0-3.049Zm-3.049-6.1h3.049a1.524,1.524,0,1,0,0-3.049H23.817a1.524,1.524,0,1,0,0,3.049ZM28.39,15.244H58.879v-6.1H51.1A1.523,1.523,0,0,1,49.61,7.925a6.1,6.1,0,0,0-11.951,0,1.523,1.523,0,0,1-1.492,1.221H28.39Zm-3.049,1.524V7.622A1.524,1.524,0,0,1,26.866,6.1h8.145a9.147,9.147,0,0,1,17.247,0H60.4a1.524,1.524,0,0,1,1.524,1.524v9.146A1.524,1.524,0,0,1,60.4,18.293H26.866a1.524,1.524,0,0,1-1.524-1.524ZM43.635,6.1a3.049,3.049,0,1,0,3.049,3.049A3.052,3.052,0,0,0,43.635,6.1ZM66.5,85.367a1.52,1.52,0,0,0,1.078-.447l9.146-9.146a1.52,1.52,0,0,0,.447-1.078V13.72A1.524,1.524,0,0,0,75.647,12.2H66.5a1.524,1.524,0,1,0,0,3.049h7.622V74.065l-8.7,8.7a1.524,1.524,0,0,0,1.078,2.6ZM20.768,12.2H11.622A1.524,1.524,0,0,0,10.1,13.72V79.269a6.1,6.1,0,0,0,6.1,6.1H60.4a1.524,1.524,0,0,0,1.524-1.524V74.7a1.629,1.629,0,0,1,1.524-1.524h6.1a1.524,1.524,0,0,0,0-3.049h-6.1A4.693,4.693,0,0,0,58.879,74.7v7.622H16.2a3.052,3.052,0,0,1-3.049-3.049V15.244h7.622a1.524,1.524,0,1,0,0-3.049Zm62.5,1.524V83.842a8.029,8.029,0,0,1-7.622,7.622H11.622A8.029,8.029,0,0,1,4,83.842V13.72A8.029,8.029,0,0,1,11.622,6.1h9.146a1.524,1.524,0,1,1,0,3.049H11.622A5.025,5.025,0,0,0,7.049,13.72V83.842a5.025,5.025,0,0,0,4.573,4.573H75.647a5.025,5.025,0,0,0,4.573-4.573V13.72a5.025,5.025,0,0,0-4.573-4.573H66.5a1.524,1.524,0,1,1,0-3.049h9.146a8.029,8.029,0,0,1,7.622,7.622Z" transform="translate(-4)" fill-rule="evenodd"/></svg>