<svg xmlns="http://www.w3.org/2000/svg" width="744.174" height="776.45" viewBox="0 0 744.174 776.45"><g transform="translate(0.001)"><ellipse cx="275.696" cy="48.763" rx="275.696" ry="48.763" transform="translate(100.321 678.925)" fill="#ddf6fa"/><path d="M359.174,313.665c0-71.04,104.167-128.629,232.663-128.629S824.5,242.625,824.5,313.665" transform="translate(-212.92 -45.279)" fill="none" stroke="#6ecddd" stroke-miterlimit="10" stroke-width="2"/><path d="M670.866,225.284H481.583q-56.157-94.643,0-189.284H670.866Q592.347,130.642,670.866,225.284Z" transform="translate(-218.793 -36)" fill="#ddf6fa"/><path d="M0,0H106.66V13.52H0Z" transform="translate(289.83 22.534)" fill="#3a6372"/><rect width="141.212" height="4.507" transform="translate(255.279 66.85)" fill="#fff"/><rect width="141.212" height="4.507" transform="translate(255.279 90.135)" fill="#fff"/><rect width="141.212" height="4.507" transform="translate(255.279 113.42)" fill="#fff"/><path d="M765.887,684.659c0,60.031,37.66,108.606,84.2,108.606" transform="translate(-238.241 -76.384)" fill="#110c53"/><path d="M855.678,793.185c0-60.705,42.026-109.826,93.963-109.826" transform="translate(-243.832 -76.303)" fill="#15bae4"/><path d="M798.42,690.463c0,57.023,24.015,103.165,53.693,103.165" transform="translate(-240.267 -76.746)" fill="#6ecddd"/><path d="M855.678,791.16c0-77.568,48.576-140.334,108.606-140.334" transform="translate(-243.832 -74.278)" fill="#110c53"/><path d="M836.788,800.865s11.941-.368,15.54-2.93,18.368-5.622,19.261-1.513,17.945,20.44,4.464,20.549-31.325-2.1-34.917-4.288S836.788,800.865,836.788,800.865Z" transform="translate(-242.656 -83.217)" fill="#a8a8a8"/><path d="M876.293,815.968c-13.481.109-31.325-2.1-34.917-4.288-2.735-1.666-3.825-7.645-4.19-10.4-.253.011-.4.016-.4.016s.756,9.63,4.348,11.818,21.435,4.4,34.917,4.288c3.892-.031,5.236-1.416,5.162-3.467C880.673,815.171,879.19,815.944,876.293,815.968Z" transform="translate(-242.656 -83.645)" opacity="0.2"/><path d="M559.9,189.517a2.611,2.611,0,0,0,3.061-1.265c2.461-3.877-2.07-8.876-1.089-13.362.786-3.594,4.87-5.727,5.7-9.31.811-3.481-1.689-7.405,0-10.555,1.324-2.468,4.631-3.117,7.4-2.685s5.393,1.649,8.189,1.819c3.725.227,7.276-1.413,10.918-2.225s8.085-.494,10.228,2.561c2.751,3.923-.04,9.386.918,14.081.761,3.728,3.882,6.815,3.949,10.619.024,1.352-3.531.263-3.342,1.6s-1.491.16-.148,0a2.66,2.66,0,0,0,2.021-2.4c.16-1.115,2.256-1.487,2.232-2.614-.057-2.64,4.716-.86,5.5-3.381a25.564,25.564,0,0,0-1.045-17.833c-1.07-2.4-2.528-4.674-3.045-7.253-.7-3.5.4-7.258-.754-10.635-1.559-4.552-6.716-6.872-11.5-7.343s-9.653.372-14.414-.323c-4.265-.622-8.393-2.471-12.695-2.2-5.161.321-9.653,3.647-13.231,7.381s-6.613,8.029-10.676,11.227a20.94,20.94,0,0,0-3.423,2.947c-2.07,2.522-2.28,6.115-1.7,9.326s1.828,6.275,2.357,9.494c.5,3.025.344,6.116.558,9.175s.849,6.21,2.691,8.661a8.174,8.174,0,0,0,6.36,3.323c.861.02,1.589-.754,2.458-.552C558.46,188.043,558.931,189.074,559.9,189.517Z" transform="translate(-224.344 -41.652)" fill="#2f2e41"/><path d="M318.546,394.556l3.192,19.61,6.385-8.666-3.649-13.225Z" transform="translate(-19.832 -24.422)" fill="#a0616a"/><path d="M525.467,272.651,520.441,285.9s-5.006,67.474-5.006,72.49,3.648,69.319,5.017,72.056c0,0,5.929-8.665,13.681-7.3s4.56-22.8,4.56-22.8l7.3-59.742-1.368-30.1Z" transform="translate(-222.649 -50.733)" fill="#575a89"/><path d="M525.467,272.651,520.441,285.9s-5.006,67.474-5.006,72.49,3.648,69.319,5.017,72.056c0,0,5.929-8.665,13.681-7.3s4.56-22.8,4.56-22.8l7.3-59.742-1.368-30.1Z" transform="translate(-222.649 -50.733)" opacity="0.1"/><path d="M559.2,194.219s15.05,38.308,6.385,45.6,48.341-12.313,48.341-12.313l-1.368-5.017s-18.7-7.3-9.577-28.275S559.2,194.219,559.2,194.219Z" transform="translate(-225.374 -45.27)" fill="#a0616a"/><path d="M559.2,194.219s15.05,38.308,6.385,45.6,48.341-12.313,48.341-12.313l-1.368-5.017s-18.7-7.3-9.577-28.275S559.2,194.219,559.2,194.219Z" transform="translate(-225.374 -45.27)" opacity="0.1"/><path d="M530.085,740.472s-6.385-1.824-10.033,2.736-17.33,15.962-17.33,15.962-26.451-2.736-30.1,10.489,41.5,13.225,52.446,10.033,13.225,0,13.225,0,33.747,2.736,33.747-2.736-3.192-24.171-3.192-24.171Z" transform="translate(-219.97 -79.837)" fill="#575a89"/><path d="M647.089,773.026l-5.929,18.242s-17.786,24.627-7.753,29.644,45.6,10.033,45.6-3.192V792.636s-3.648-17.786-7.3-19.61S647.089,773.026,647.089,773.026Z" transform="translate(-229.802 -81.835)" fill="#575a89"/><path d="M539.555,422.248s-19.228,16.706-18.772,18.986,9.576,148.672,9.576,148.672l5.017,94.858s-6.385,22.346-3.192,27.363-4.56,6.385-4.56,6.385,32.835,29.643,46.517,16.874L586.91,569.84l35.116,120.4s5.929,63.847,12.769,63.847,34.66,1.368,34.2-2.28,1.368-31.467-1.824-47.885-24.627-146.392-24.627-146.392S640.705,446.1,645.5,435.687s-2.5-21.36-2.5-21.36l-31.923-12.313-38.308,4.561Z" transform="translate(-222.981 -58.787)" fill="#2f2e41"/><circle cx="31.923" cy="31.923" r="31.923" transform="translate(323.34 100.609)" fill="#a0616a"/><path d="M655.771,248.949A28.636,28.636,0,0,0,635.7,230.707a176.878,176.878,0,0,1-26.907-9.121s-32.38,15.506-38.764,15.506-6.385-4.1-6.385-4.1-16.418,17.33-25.083,19.154-21.434,23.258-16.874,35.116a66.173,66.173,0,0,0,13.226,20.522s-1.824,63.847,4.1,75.7c0,0-14.593,27.819-.912,29.643s66.127-4.56,75.248,1.824,25.995-1.368,28.275,7.3,7.3,10.489,7.3,10.489,7.753-12.313,3.192-19.61S655.771,248.949,655.771,248.949Z" transform="translate(-222.979 -47.554)" fill="#575a89"/><path d="M628.263,433.625l-7.3,4.56s7.753,26.907,10.945,27.819S642.619,443,642.619,443Z" transform="translate(-229.219 -60.755)" fill="#a0616a"/><path d="M554.06,186.112a2.611,2.611,0,0,0,3.061-1.265c2.461-3.877-2.07-8.876-1.089-13.362.786-3.594,4.87-5.727,5.7-9.31.811-3.481-1.689-7.405,0-10.555,1.324-2.468,4.631-3.117,7.4-2.685s5.393,1.649,8.189,1.819c3.725.227,7.275-1.413,10.918-2.225s8.085-.494,10.228,2.561c2.751,3.923-.04,9.386.918,14.081.761,3.728,9.428,6.345,10.214,3.824a25.564,25.564,0,0,0-1.045-17.833c-1.07-2.4-2.528-4.674-3.045-7.253-.7-3.5.4-7.258-.754-10.635-1.559-4.552-6.716-6.872-11.5-7.343s-9.653.372-14.414-.323c-4.265-.623-8.393-2.471-12.695-2.2-5.161.321-9.653,3.647-13.231,7.381s-6.613,8.029-10.676,11.227a20.937,20.937,0,0,0-3.423,2.947c-2.07,2.522-2.279,6.115-1.7,9.326s1.828,6.275,2.357,9.494c.5,3.025.344,6.116.558,9.175s.849,6.21,2.691,8.661a8.174,8.174,0,0,0,6.36,3.323c.861.02,1.589-.754,2.458-.552C552.624,184.639,553.1,185.67,554.06,186.112Z" transform="translate(-223.981 -41.44)" fill="#2f2e41"/><path d="M643.953,258.747l14.822-7.981S694.8,336.5,686.138,360.218s-41.956,72.512-41.956,72.512-26.451-5.473-23.715-10.945,20.522-40.588,21.89-45.149,10.489-34.2,6.385-37.4-12.085-77.3-12.085-77.3Z" transform="translate(-229.175 -49.371)" opacity="0.1"/><path d="M643.938,245.416l18.242,5.017s36.028,85.737,27.363,109.451S647.586,432.4,647.586,432.4s-26.451-5.473-23.715-10.945,20.522-40.588,21.89-45.149,10.489-34.2,6.385-37.4-23.714-82.089-23.714-82.089Z" transform="translate(-229.387 -49.038)" fill="#575a89"/><path d="M824.5,322.2c0,74.48-104.167,134.858-232.663,134.858S359.174,396.685,359.174,322.2" transform="translate(-212.92 -53.819)" fill="none" stroke="#6ecddd" stroke-miterlimit="10" stroke-width="2"/><path d="M784.924,468.058c-52.006,28.049-119.865,45.022-194.095,45.022-71.172,0-136.485-15.6-187.586-41.611" transform="translate(-215.664 -62.899)" fill="none" stroke="#6ecddd" stroke-miterlimit="10" stroke-width="2"/><path d="M731.188,147.906C830.161,173.92,900.649,231.141,907.2,298.535" transform="translate(-236.081 -42.967)" fill="none" stroke="#6ecddd" stroke-miterlimit="10" stroke-width="2"/><path d="M302.373,256.621c16.676-30.651,47.141-57.624,87.057-78.347" transform="translate(-209.384 -44.858)" fill="none" stroke="#6ecddd" stroke-miterlimit="10" stroke-width="2"/><path d="M520.568,599.14H709.852q56.156-94.642,0-189.284H520.568Q599.088,504.5,520.568,599.14Z" transform="translate(-222.968 -59.276)" fill="#ddf6fa"/><rect width="106.66" height="13.52" transform="translate(360.23 386.635)" fill="#3a6372"/><rect width="141.212" height="4.507" transform="translate(351.967 427.196)" fill="#fff"/><rect width="141.212" height="4.507" transform="translate(351.967 450.48)" fill="#fff"/><path d="M420.572,462.133H231.288q-56.156-94.642,0-189.284H420.572Q342.052,367.491,420.572,462.133Z" transform="translate(-203.21 -50.746)" fill="#ddf6fa"/><rect width="106.66" height="13.52" transform="translate(49.11 244.637)" fill="#3a6372"/><rect width="141.212" height="4.507" transform="translate(25.825 282.193)" fill="#fff"/><rect width="141.212" height="4.507" transform="translate(25.825 305.478)" fill="#fff"/><rect width="141.212" height="4.507" transform="translate(25.825 328.763)" fill="#fff"/><rect width="141.212" height="4.507" transform="translate(25.825 352.048)" fill="#fff"/><path d="M765,369.153H954.281q56.156-94.642,0-189.284H765Q843.517,274.512,765,369.153Z" transform="translate(-238.186 -44.957)" fill="#ddf6fa"/><rect width="106.66" height="13.52" transform="translate(587.188 153.69)" fill="#3a6372"/><rect width="141.212" height="4.507" transform="translate(575.921 191.247)" fill="#fff"/></g></svg>