<svg xmlns="http://www.w3.org/2000/svg" width="838.771" height="648.727" viewBox="0 0 838.771 648.727"><g transform="translate(0 0)"><path d="M517.2,560.529a229.707,229.707,0,1,1,162.428-67.28A229.707,229.707,0,0,1,517.2,560.529Zm0-457.919c-125.836,0-228.211,102.375-228.211,228.211S391.364,559.033,517.2,559.033,745.412,456.658,745.412,330.821,643.037,102.61,517.2,102.61Z" transform="translate(-101.931 -37.793)" fill="#dbfaff"/><path d="M612.442,670.629c-4.254,15.724-18.824,25.463-18.824,25.463s-7.673-15.756-3.42-31.48,18.824-25.463,18.824-25.463S616.7,654.9,612.442,670.629Z" transform="translate(-177.824 -173.258)" fill="#e9fcff"/><path d="M568.209,670.629c4.254,15.724,18.824,25.463,18.824,25.463s7.673-15.756,3.42-31.48-18.824-25.463-18.824-25.463S563.955,654.9,568.209,670.629Z" transform="translate(-172.287 -173.258)" fill="#e9fcff"/><path d="M567.179,672.56c11.672,11.363,13.1,28.829,13.1,28.829s-17.5-.955-29.171-12.318-13.1-28.83-13.1-28.83S555.507,661.2,567.179,672.56Z" transform="translate(-165.007 -178.568)" fill="#3f3d56"/><path d="M607.6,672.56c-11.672,11.363-13.1,28.829-13.1,28.829s17.5-.955,29.171-12.318,13.1-28.83,13.1-28.83S619.27,661.2,607.6,672.56Z" transform="translate(-179.23 -178.568)" fill="#3f3d56"/><path d="M568.209,127.611c4.254-15.724,18.824-25.463,18.824-25.463s7.673,15.756,3.42,31.48-18.824,25.463-18.824,25.463S563.955,143.336,568.209,127.611Z" transform="translate(-172.287 -38.059)" fill="#e9fcff"/><path d="M612.442,127.611c-4.254-15.724-18.824-25.463-18.824-25.463s-7.673,15.756-3.42,31.48,18.824,25.463,18.824,25.463S616.7,143.336,612.442,127.611Z" transform="translate(-177.824 -38.059)" fill="#e9fcff"/><path d="M607.6,131c-11.672-11.363-13.1-28.829-13.1-28.829s17.5.955,29.171,12.318,13.1,28.83,13.1,28.83S619.27,142.358,607.6,131Z" transform="translate(-179.23 -38.064)" fill="#3f3d56"/><path d="M567.179,131c11.672-11.363,13.1-28.829,13.1-28.829s-17.5.955-29.171,12.318-13.1,28.83-13.1,28.83S555.507,142.358,567.179,131Z" transform="translate(-165.007 -38.064)" fill="#3f3d56"/><rect width="297.389" height="302.412" transform="translate(10.945 9.485)" fill="#e9fcff"/><path d="M302.872,22.935H22.935V306.089H37.951V39.024H302.872Z" transform="translate(-5.774 -5.774)" fill="#3f3d56"/><path d="M302.872,22.935H22.935V306.089H37.951V39.024H302.872Z" transform="translate(-5.774 -5.774)" opacity="0.3"/><path d="M265.022,44.437H43V83.049H253.224V311.5h54.7V44.437Z" transform="translate(-10.827 -11.188)" opacity="0.1"/><path d="M39.5,16.495V333.971H353.758V16.495ZM336.6,316.81H56.661V33.656H336.6Z" transform="translate(-39.5 -16.495)" fill="#3f3d56"/><path d="M329.17,456.438s14.21,27.532,22.2,33.749S338.5,503.954,338.5,503.954l-24.424-38.19Z" transform="translate(-108.628 -127.257)" fill="#a0616a"/><path d="M209.848,366.821s66.167,17.319,71.94,28.865,23.536,39.522,23.536,39.522l-26.2,20.871-25.756-38.634-71.051-31.973Z" transform="translate(-75.456 -104.695)" fill="#2f2e41"/><path d="M338.666,502.465s-6.217-5.329-7.993-1.776-7.105,21.76-7.105,21.76,7.549,7.105,23.092,2.664c0,0,4-3.109,10.214,0s29.309-3.109,28.421-13.322-24.424-9.326-24.424-9.326-9.913-11.106-11.174-6.885.516,4.665.516,4.665S342.218,508.682,338.666,502.465Z" transform="translate(-111.018 -136.871)" fill="#2f2e41"/><path d="M240.764,492.641l-4.441,37.3h21.76s-1.776-28.865-1.332-32.417S240.764,492.641,240.764,492.641Z" transform="translate(-89.053 -136.372)" fill="#a0616a"/><path d="M256.186,382.845s11.99,17.763,4.885,19.1-12.878-19.1-12.878-19.1Z" transform="translate(-92.042 -108.729)" fill="#a0616a"/><path d="M137.466,379.276s-8.881,26.2,26.2,33.305,45.739,12.878,45.739,12.878l4.441,45.3,30.641,1.776s14.654-68.831-4.441-77.712-59.506-19.1-59.506-19.1Z" transform="translate(-63.912 -106.936)" fill="#2f2e41"/><path d="M236,531s6.217-3.109,7.105-3.109c0,0,3.9-9,11.055-8.054l15.59,22.709s23.536,16.875,7.105,21.315-29.309.888-29.309.888l-6.661-4.885s.888-4.885-4.885-4c0,0-11.99-4.885-11.546-8.437s9.876-19.016,9.876-19.016Z" transform="translate(-86.061 -143.201)" fill="#2f2e41"/><circle cx="17.763" cy="17.763" r="17.763" transform="translate(135.946 150.442)" fill="#a0616a"/><path d="M219.093,233.878s-15.987,11.546-19.1,11.99,14.654,22.2,14.654,22.2,8.437-13.766,13.766-15.543S219.093,233.878,219.093,233.878Z" transform="translate(-79.816 -71.224)" fill="#a0616a"/><path d="M190.918,250.475s-6.661-8.881-10.658-8.881-39.966,4-43.075,33.749-1.332,81.709-1.332,81.709-2.664-12.878,27.088-7.549c0,0,35.526-7.549,41.743-7.549s8.881-63.5,8.881-63.5l-10.111-15.676S198.911,271.347,190.918,250.475Z" transform="translate(-63.631 -73.167)" fill="#d0cde1"/><path d="M229.338,286.105,236,289.658l7.993,48.848,11.1,25.312s-11.99-4.128-12.878.823L224.454,338.95Z" transform="translate(-86.065 -84.373)" fill="#d0cde1"/><path d="M234.9,216.386l9.663,1.207c-.184,1.966-.133,4.4,1.609,5.333.819.437,1.858.415,2.584.994,1.746,1.392.038,4.386,1.024,6.39l2.826.748a5.463,5.463,0,0,0,7.424,2.227c1.9-1.14,2.867-3.319,3.721-5.363,1.021-2.442,2.063-5.065,1.552-7.662-.549-2.79-2.828-5.108-2.932-7.95-.046-1.271.222-2.856-.849-3.541a4.531,4.531,0,0,0-1.567-.416c-2.469-.516-3.843-3.071-5.684-4.794-3.858-3.612-9.783-3.517-15.059-3.2a13.376,13.376,0,0,0-4.432.773,12.912,12.912,0,0,0-4.175,3.329,43.62,43.62,0,0,0-7.451,9.87,17.517,17.517,0,0,0-1.772,12.015c-.1-.386,3.258-2.911,3.676-3.316a8.706,8.706,0,0,0,2.142-3.34C228.859,216.278,231.162,215.919,234.9,216.386Z" transform="translate(-85.187 -62.749)" fill="#2f2e41"/><path d="M162.1,281.777l1.333,31.085,19.753,23.165L165.213,310.2Z" transform="translate(-40.812 -70.942)" opacity="0.1"/><path d="M114.625,293.054l15.542,35.97,19.983,16.43L128.835,330.8Z" transform="translate(-28.859 -73.781)" opacity="0.1"/><path d="M261.621,348.419l9.391,6.46a2.593,2.593,0,0,1,.717,3.19l-1.256,2.592.291.2-1.427,2.945-.291-.2L258.7,384.954a2,2,0,0,1-2.98.951l-8.826-6.071a2.982,2.982,0,0,1-.825-3.668l13.06-26.953a1.673,1.673,0,0,1,2.489-.795Z" transform="translate(-91.429 -99.991)" fill="#3f3d56"/><path d="M207.976,359.631l10.108,6.953,13.186-27.211-10.109-6.953Z" transform="translate(-52.361 -83.692)" fill="#fff"/><path d="M239.1,377.276s17.615,12.207,11.476,16.024-18.926-13.126-18.926-13.126Z" transform="translate(-87.878 -107.327)" fill="#a0616a"/><path d="M165.7,256.431s-23.092,6.661-16.431,27.088c1.607,4.928,3.55,10.217,5.573,15.407,6.364,16.325,13.522,31.665,13.522,31.665l20.071,18.148,27,7.608,3.109-2.664s.888-8.437-3.109-9.326-10.214-4.441-10.214-4.441l-15.987-23.536S188.79,257.763,165.7,256.431Z" transform="translate(-66.832 -76.902)" fill="#d0cde1"/><rect width="290.309" height="295.211" transform="translate(828.086 529.309) rotate(180)" fill="#e9fcff"/><path d="M733.389,322.881H1006.66V599.294H992V338.586H733.389Z" transform="translate(-184.642 -81.29)" fill="#3f3d56"/><path d="M733.389,322.881H1006.66V599.294H992V338.586H733.389Z" transform="translate(-184.642 -81.29)" opacity="0.3"/><path d="M775.27,343.871H992v37.692H786.787V604.578h-53.4V343.871Z" transform="translate(-184.642 -86.575)" opacity="0.1"/><path d="M750.5,316.987V626.9h306.776V316.987Zm16.752,16.752h273.272V610.151H767.252Z" transform="translate(-218.506 -92.148)" fill="#3f3d56"/><path d="M972.923,508.319c-6.606-11.162-19.675-11.682-19.675-11.682s-12.735-1.629-20.905,15.371c-7.615,15.845-18.124,31.145-1.692,34.854l2.968-9.238,1.838,9.926a64.3,64.3,0,0,0,7.031.12c17.6-.568,34.357.166,33.817-6.148C975.587,533.127,979.279,519.059,972.923,508.319Z" transform="translate(-261.67 -137.367)" fill="#2f2e41"/><path d="M886.471,614.3l-1.39,25.016,40.767,4.169,1.39-25.943-13.9-8.8Z" transform="translate(-222.833 -153.26)" fill="#a0616a"/><path d="M1024.46,692.619c-1.222-11.818-49.757-17.182-61.421-18.3l-4.361-2.544-1.39-14.824s-43.083-3.706-46.326-4.169-6.022,5.559-6.022,6.949c0,1-.606,8.177-3.04,12.428-5.256,4.224-21.281,17.513-21.281,22.548,0,6.022,12.74,81.766,12.74,81.766l1.39,15.751,12.971,2.316-.927-49.105s4.633-28.259-1.853-36.134v-3.243s19.023-4.956,25.727-10.352c1.943-.417,7.4-1.446,10.417-.552.414.243.89.494,1.42.748a2.163,2.163,0,0,1,.192.2l.052-.08c8.673,4.059,30.921,9.18,40.02,7.724a31.843,31.843,0,0,1,20.383,3.706c-5.1,6.486-1.39,25.016-1.39,25.016l.463,39.84,6.486,7.875h8.8V758.4S1025.852,706.054,1024.46,692.619Z" transform="translate(-251.265 -176.683)" fill="#2f2e41"/><circle cx="15.288" cy="15.288" r="15.288" transform="translate(672.208 370.936)" fill="#a0616a"/><path d="M941.888,545.676s2.316,10.192-.927,11.118a43.838,43.838,0,0,0-7.412,3.243l-3.706,12.045v12.045l44.936,5.1,1.39-4.169v-6.022l-5.1-9.265-2.316-2.316s-10.192-11.118-7.875-21.773Z" transform="translate(-263.658 -149.724)" fill="#a0616a"/><path d="M995.756,594.9s1.39,16.214,0,23.626-.927,18.53-.927,18.53L984.638,635.2V610.185l2.316-13.435Z" transform="translate(-277.453 -162.117)" fill="#a0616a"/><circle cx="9.45" cy="9.45" r="9.45" transform="translate(683.727 349.876)" fill="#2f2e41"/><path d="M951.289,490.223a9.45,9.45,0,0,1,8.454-9.4,9.45,9.45,0,1,0,0,18.794A9.45,9.45,0,0,1,951.289,490.223Z" transform="translate(-268.556 -133.384)" fill="#2f2e41"/><path d="M935.086,492.055l-12.912-6.763-17.831,2.767-3.689,16.294,9.183-.353,2.566-5.986V503.9l4.237-.163,2.459-9.53,1.537,10.145,15.064-.307Z" transform="translate(-226.754 -122.18)" fill="#2f2e41"/><path d="M909.341,818.356s6.574,3.094,8.507,4.254,9.667-1.16,8.12,5.8-8.12,13.534-8.12,13.534-3.094,3.48-3.094,5.8-7.734,20.108-17.014,19.334-7.734-10.054-7.734-10.054l1.933-10.054s3.867-17.014,4.64-16.628,2.707,3.093,2.707,3.093A17.153,17.153,0,0,0,909.341,818.356Z" transform="translate(-253.604 -218.376)" fill="#d0cde1"/><path d="M1039.067,802.877s-6.574,3.094-8.507,4.254-9.667-1.16-8.12,5.8,8.12,13.534,8.12,13.534,3.094,3.48,3.094,5.8,7.734,20.108,17.014,19.334,7.734-10.054,7.734-10.054l-1.934-10.054s-3.867-17.014-4.64-16.628-2.707,3.094-2.707,3.094A17.156,17.156,0,0,1,1039.067,802.877Z" transform="translate(-286.919 -214.479)" fill="#d0cde1"/><path d="M971.112,652.821v-3.677h-.817V647.51a2.86,2.86,0,0,0-2.859-2.86h-9.8a2.86,2.86,0,0,0-2.86,2.86v27.37a2.859,2.859,0,0,0,2.859,2.86h9.8a2.86,2.86,0,0,0,2.859-2.86V657.723h.817v-3.677H970.3v-1.226Z" transform="translate(-269.934 -174.643)" fill="#d0cde1"/><circle cx="1.634" cy="1.634" r="1.634" transform="translate(691.374 476.544)" fill="#3f3d56"/><path d="M907.917,584.372l-8.339,34.281a9.657,9.657,0,0,0,4.169,12.045c7.412,4.633,24.09,10.655,24.09,10.655s14.824,20.383,16.677,12.045S933.4,634.4,933.4,634.4l-22.7-14.361,8.8-24.089Z" transform="translate(-255.86 -159.467)" fill="#a0616a"/><path d="M986.243,641.941s6.949-.927,6.486,6.949-9.728,8.8-9.728,8.8-4.169,17.6-10.192,14.361,3.243-20.847,3.243-20.847l7.875-6.022Z" transform="translate(-273.963 -173.952)" fill="#a0616a"/><path d="M926.241,575.2l7.412-15.288-14.824,5.1s-8.339,4.169-8.8,13.9,10.655,14.824,10.655,14.824,1.853,13.9.927,15.751,0,9.265,0,9.265,17.836-4.864,26.637,1.158,15.982,2.548,15.982,2.548-.463-11.581,3.243-13.435,6.949-10.655,3.706-16.214c0,0,7.412.927,6.949-6.022s-4.169-12.971-10.192-15.751-6.688-3.224-6.688-3.224l8.541,15.732v4.169s-15.12-9.651-30.08-10.456a19.925,19.925,0,0,0-13.466,4.433h0Z" transform="translate(-258.665 -153.31)" fill="#2f2e41"/></g></svg>